<?xml version="1.0" standalone="no"?>
<!DOCTYPE svg PUBLIC "-//W3C//DTD SVG 20010904//EN"
 "http://www.w3.org/TR/2001/REC-SVG-20010904/DTD/svg10.dtd">
<svg version="1.0" xmlns="http://www.w3.org/2000/svg"
 width="38.000000pt" height="30.000000pt" viewBox="0 0 38.000000 30.000000"
 preserveAspectRatio="xMidYMid meet">
<metadata>
Created by potrace 1.16, written by Peter Selinger 2001-2019
</metadata>
<g transform="translate(0.000000,30.000000) scale(0.100000,-0.100000)"
fill="#000000" stroke="none">
<path d="M69 234 c-18 -22 -13 -96 10 -149 22 -51 44 -60 123 -53 42 4 57 11
75 34 13 16 35 42 49 57 18 20 23 35 18 50 -7 26 -32 47 -55 47 -22 0 -71 -39
-64 -51 4 -5 -3 -9 -14 -9 -12 0 -31 -10 -42 -21 l-22 -22 -19 24 c-39 49 -41
59 -14 59 32 0 40 14 20 34 -20 20 -48 20 -65 0z"/>
</g>
</svg>
